<?xml version="1.0" encoding="UTF-8"?>
<svg version="1.1" xmlns="http://www.w3.org/2000/svg" width="640" height="264">
<path d="M0 0 C8.31890734 7.31017755 15.6915263 14.87334394 21.609375 24.29296875 C22.37314453 25.4221875 22.37314453 25.4221875 23.15234375 26.57421875 C27.94722503 33.96992252 30.7516364 42.01199633 33.609375 50.29296875 C34.09083984 51.62328125 34.09083984 51.62328125 34.58203125 52.98046875 C42.84822133 77.57134576 39.01827006 105.71154213 27.91015625 128.71875 C27.48089844 129.56824219 27.05164063 130.41773438 26.609375 131.29296875 C26.16980469 132.19402344 25.73023438 133.09507812 25.27734375 134.0234375 C13.09784144 157.81205221 -9.43094621 175.54361657 -34.390625 184.29296875 C-39.98559554 185.96927393 -45.66004469 187.18443026 -51.390625 188.29296875 C-52.18259277 188.46803955 -52.97456055 188.64311035 -53.79052734 188.82348633 C-79.55678932 193.47592969 -107.96582063 185.81769304 -129.390625 171.29296875 C-133.98016833 167.90591516 -138.20426515 164.16086416 -142.390625 160.29296875 C-143.12667969 159.638125 -143.86273438 158.98328125 -144.62109375 158.30859375 C-163.22373971 140.93127178 -174.77612692 114.2592523 -175.6796875 89.046875 C-176.28956318 58.78952812 -168.1835456 31.14082519 -146.99536133 8.81616211 C-107.24162031 -31.55902837 -44.4018496 -36.55375198 0 0 Z " fill="#6C569E" transform="translate(207.390625,51.70703125)"/>
<path d="M0 0 C13.44531738 11.11544289 23.09014228 25.1617963 26.25 42.625 C26.53423242 45.73529537 26.58430128 48.8154938 26.5625 51.9375 C26.55512817 53.19252319 26.55512817 53.19252319 26.54760742 54.47290039 C26.42573475 60.9221522 25.56799638 66.57400543 23.25 72.625 C22.89808594 73.60726562 22.54617187 74.58953125 22.18359375 75.6015625 C15.39472549 93.30191208 2.63273549 105.8289972 -14.37890625 113.8671875 C-30.73757289 120.88170183 -50.1583614 120.90764861 -66.75 114.625 C-81.64810088 108.00574135 -92.61612747 97.58037231 -100.75 83.625 C-101.15347656 82.944375 -101.55695313 82.26375 -101.97265625 81.5625 C-109.38243852 68.038943 -109.86185272 50.07993804 -106.75 35.1875 C-100.98551932 16.52027984 -88.11022166 1.91290017 -70.9375 -7.1875 C-47.93549475 -18.34186315 -20.42783954 -15.30344976 0 0 Z " fill="#FDFCFD" transform="translate(179.75,81.375)"/>
<path d="M0 0 C9.53080789 7.28735474 16.95238145 16.63161724 18.6875 28.8125 C19.66512565 44.08522834 18.11380651 56.64554801 8.0234375 68.8203125 C-0.58795038 77.90355725 -11.81414113 82.83508859 -24.375 83.3125 C-37.03380234 82.79547382 -47.66732385 77.0825789 -56.1875 67.875 C-59.26914715 64.11336498 -61.44892724 60.29025122 -63.3125 55.8125 C-63.76109375 54.88630859 -63.76109375 54.88630859 -64.21875 53.94140625 C-68.10186171 44.71901595 -67.84419349 32.05718511 -64.625 22.6875 C-58.72562111 9.12308304 -49.95378481 0.49950833 -36.453125 -5.42578125 C-24.19742282 -9.78684316 -10.67540599 -7.04052849 0 0 Z " fill="#755DA7" transform="translate(162.3125,96.1875)"/>
<path d="M0 0 C1.31581055 -0.01740234 1.31581055 -0.01740234 2.65820312 -0.03515625 C14.91560857 0.01904009 25.03877995 4.3538936 34.046875 12.66796875 C46.02139875 25.30551143 49.28229413 37.94678795 48.93359375 54.90234375 C48.32600546 67.56223506 42.08350281 78.44598767 32.765625 86.91796875 C26.44118942 91.93983276 20.30308423 95.14443714 12.5625 97.375 C11.5725 97.705 10.5825 98.035 9.5625 98.375 C0.01159893 98.87514789 -9.5416978 99.3627734 -18.4375 95.375 C-19.17871094 95.04628906 -19.91992188 94.71757812 -20.68359375 94.37890625 C-33.33300118 88.04324118 -42.17953192 77.42315742 -46.875 64.1875 C-50.76787249 49.98104324 -48.86406727 36.00562319 -41.75 23.125 C-32.09758471 8.22302552 -17.68176152 -0.23282495 0 0 Z M-23.96875 29.39453125 C-30.06990483 38.6704149 -30.86132277 49.07799643 -29.0078125 59.87890625 C-26.65359702 67.07234243 -20.77365331 74.35695156 -14.4375 78.375 C-6.15837039 82.33536286 1.0520332 83.16352701 9.82421875 80.43359375 C19.14373832 76.83075523 24.00920924 71.17112988 28.5625 62.375 C31.8469148 54.5209646 31.60756418 45.63519255 28.9375 37.625 C25.256039 28.70996379 20.09577819 22.9260817 11.5625 18.375 C-1.91219114 13.17424202 -15.39793174 18.09067146 -23.96875 29.39453125 Z " fill="#4F3396" transform="translate(547.4375,83.625)"/>
<path d="M0 0 C1.31581055 -0.01740234 1.31581055 -0.01740234 2.65820312 -0.03515625 C13.16326646 0.01129208 21.28564811 3.01394746 29.5625 9.375 C30.26503906 9.91253906 30.96757812 10.45007813 31.69140625 11.00390625 C40.68477921 18.35901772 44.95453398 27.55110193 48.5625 38.375 C50.10148936 55.56103054 48.20578076 68.788648 37.20703125 82.578125 C27.95352198 92.36470201 16.46897113 98.28478981 2.91674805 98.84106445 C-11.11572591 99.04333697 -23.69619145 94.87470439 -34.125 85.1875 C-44.06030783 74.47892529 -49.10405169 61.93839882 -48.91040039 47.33081055 C-48.27741437 33.094629 -42.07443349 21.1149402 -31.859375 11.4140625 C-22.30109269 3.36660546 -12.39813263 -0.16325266 0 0 Z M-24.4375 29.375 C-30.20032359 38.02683805 -30.13344921 47.36705429 -29.4375 57.375 C-27.43054108 65.5060507 -21.46860986 73.8550008 -14.4375 78.375 C-5.99893964 82.42113477 1.09390321 83.047562 10.015625 80.32421875 C18.67812422 77.09571061 24.34222276 70.33807787 28.5625 62.375 C32.04897572 53.90784468 31.73468204 44.44969159 28.4375 36 C23.98742859 26.53892382 17.91058921 20.79881588 8.125 17.0625 C-5.44730138 14.44328394 -15.27209144 19.17073343 -24.4375 29.375 Z " fill="#4F3496" transform="translate(346.4375,83.625)"/>
<path d="M0 0 C13.2 0 26.4 0 40 0 C40 5.61 40 11.22 40 17 C36.04 17.495 36.04 17.495 32 18 C38.55402287 33.90663294 45.17764048 49.66679086 53 65 C56.4407598 57.11344746 59.72742141 49.20972627 62.78125 41.1640625 C65.92648762 32.99854176 69.40982211 24.97817309 73 17 C70.03 17 67.06 17 64 17 C64 11.39 64 5.78 64 0 C74.56 0 85.12 0 96 0 C96 12.32687651 96 12.32687651 93.3125 17.8125 C92.65778559 19.20201045 92.00566966 20.5927468 91.35546875 21.984375 C90.98341309 22.76748047 90.61135742 23.55058594 90.22802734 24.35742188 C88.02768824 29.09230665 85.99017738 33.89830161 83.9286499 38.69485474 C82.55084526 41.89680911 81.16395287 45.09481956 79.77734375 48.29296875 C79.48406189 48.96968124 79.19078003 49.64639374 78.88861084 50.34361267 C72.28519731 65.57374508 65.63816654 80.784992 59 96 C51.18295455 96.09147727 51.18295455 96.09147727 47.875 94.4375 C47.25367188 94.14746094 46.63234375 93.85742188 45.9921875 93.55859375 C39.52058125 88.49551357 36.87335806 80.54910342 33.875 73.1875 C32.91032626 70.86451273 31.94547731 68.54159821 30.98046875 66.21875 C30.24449463 64.43404297 30.24449463 64.43404297 29.49365234 62.61328125 C27.08741637 56.79237698 24.63921258 50.98936573 22.1875 45.1875 C21.72931885 44.09969238 21.2711377 43.01188477 20.79907227 41.89111328 C17.99329705 35.25574411 15.08741876 28.69733362 11.92578125 22.22265625 C11 20 11 20 11 17 C7.37 17 3.74 17 0 17 C0 11.39 0 5.78 0 0 Z " fill="#4F3496" transform="translate(398,86)"/>
</svg>
